<?xml version="1.0" encoding="UTF-8"?>
<svg id="_レイヤー_2" data-name="レイヤー_2" xmlns="http://www.w3.org/2000/svg" version="1.1" viewBox="0 0 66 66">
  <!-- Generator: Adobe Illustrator 29.6.1, SVG Export Plug-In . SVG Version: 2.1.1 Build 9)  -->
  <defs>
    <style>
      .st0 {
        fill: #f7af29;
      }

      .st1, .st2 {
        stroke: #9c9c9c;
      }

      .st1, .st2, .st3, .st4, .st5 {
        fill: none;
        stroke-linecap: round;
      }

      .st1, .st2, .st4, .st5 {
        stroke-linejoin: round;
      }

      .st1, .st3, .st4 {
        stroke-width: 1.12px;
      }

      .st2 {
        stroke-width: .7px;
      }

      .st6 {
        fill: #c4c4c4;
      }

      .st3 {
        stroke: #c4c4c4;
        stroke-miterlimit: 10;
      }

      .st7 {
        opacity: .9;
      }

      .st8 {
        fill: #9c9c9c;
      }

      .st9 {
        fill: #999;
      }

      .st4, .st5 {
        stroke: #404040;
      }

      .st5 {
        stroke-width: 1.68px;
      }
    </style>
  </defs>
  <g class="st7">
    <path class="st6" d="M60.72,51.65c-.36-.12-.42.08-.78-.05s-.26-.38-.62-.51-.38.02-.7-.19c-.03-.22-.27-.3-.31-.53s-.16-.43-.2-.67-.09-.45-.14-.68.1-.49.04-.72,0-.48-.05-.71-.3-.4-.36-.62.05-.49-.02-.72-.27-.4-.34-.63-.18-.43-.25-.65.13-.54.05-.76-.21-.42-.29-.64-.31-.38-.4-.6c.06,0,.12-.02.19-.04.09-.03.2.03.26,0,.03-.01.07.04.1.03.07-.02.12-.13.19-.15.03-.01-.05-.32-.01-.33.1-.04.38.34.48.29.03-.01-.05-.31-.02-.33.07-.03.19.07.26.03.03-.01.11.09.14.08.06-.03,0-.34.08-.38.1-.05.28.07.34.02.02-.01-.08-.2-.07-.21.02,0,.05-.04.06-.05.07-.03.13-.05.23-.12.1-.07.43.15.48.09.01-.01-.21-.27-.2-.27.03-.02.18.14.21.12.07-.05.11-.14.17-.19.02-.02-.02-.06,0-.08.07-.06.13-.14.2-.2.01-.01.17.2.19.19.06-.04.07-.25.15-.33.07-.07.03-.22.08-.28.02-.02.19.09.21.07.02-.02-.21-.29-.18-.31.05-.05.41.17.47.1.07-.09.17-.17.23-.26.07-.09-.17-.36-.14-.43,0-.02.14.02.15,0,.05-.08.05-.17.08-.23.01-.03-.02-.09,0-.11.16-.26.05-.39-.22-.56-.26-.16-.65-.34-.81-.08-.03.05-.08.12-.11.17-.02.03.24.23.23.25-.05.08-.01.17-.04.22,0,.02-.38-.18-.39-.17-.06.08-.08.17-.14.24-.01.02.21.29.19.31-.05.04-.28-.11-.33-.06-.05.06-.13.1-.17.15-.01.02-.08-.05-.09-.03-.01,0,.02.01,0,.02-.05.03.09.37.02.44-.06.05-.26-.07-.32-.02-.02.02.16.25.14.27-.04.04-.22-.1-.27-.06-.03.02-.12-.04-.15-.02-.08.06-.19.11-.24.15,0,0,.02.02.02.02-.01,0,.05.15.04.15-.06.02-.18-.03-.27.02-.08.05-.05.21-.1.25-.02.01-.15-.14-.16-.13-.04.02,0,.19-.04.21-.05.02-.08.06-.13.08-.04.02-.14-.07-.18-.05-.05.02-.03.18-.08.2-.09.04-.16.14-.25.18-.04.02-.25-.39-.29-.37-.05.02-.03.19-.08.2-.06.02-.17-.05-.23-.02-.03.01-.03.09-.05.1-.01,0-.02.15-.05.15-.06,0-.17-.15-.24-.13-.01,0-.1.2-.12.2-.1-.22-.12-.48-.22-.7s-.17-.45-.28-.67-.16-.46-.28-.67-.32-.37-.44-.58-.26-.4-.39-.61-.26-.4-.4-.6-.15-.48-.29-.68-.23-.43-.37-.63-.37-.33-.52-.52-.39-.3-.55-.48-.22-.45-.38-.63-.49-.2-.66-.37-.35-.32-.52-.49-.17-.53-.35-.69-.41-.26-.6-.41-.33-.37-.52-.51-.43-.24-.63-.37-.49-.13-.7-.26-.42-.23-.63-.35-.38-.3-.59-.42-.42-.22-.64-.33-.51-.03-.73-.12-.37-.34-.6-.43-.5-.03-.73-.11-.34-.51-.58-.57-.57.24-.8.18-.41-.31-.65-.37-.45-.19-.69-.23-.5.07-.74.03-.47-.1-.71-.12-.49.1-.73.08-.47-.16-.71-.17-.48.08-.73.07c-.24,0-.48-.22-.72-.22s-.48.12-.72.12-.48.11-.72.12-.48.07-.72.09-.52-.4-.76-.38-.47.22-.71.24-.49.03-.73.06-.49.03-.73.07-.43.35-.66.41-.52-.07-.75,0-.52-.04-.75.03-.37.44-.6.51-.41.28-.63.37-.49.08-.7.17-.58-.1-.8,0-.36.37-.57.49-.43.24-.63.36-.31.41-.51.54-.51.11-.71.25-.22.51-.4.66-.56.08-.74.23-.34.35-.51.51-.42.27-.59.44-.34.35-.51.52-.34.35-.5.53-.37.32-.53.5-.32.37-.47.56-.07.56-.22.75-.28.39-.43.59-.19.46-.33.65-.63.15-.76.35.01.6-.13.8-.42.3-.56.5-.1.52-.24.72-.59.17-.73.36-.14.49-.28.68-.1.54-.24.72-.3.39-.46.56-.55.23-.72.39c.21.17.36.33.49.43.16.13.28.3.6.56.24.19.3.35.11.6-.11.14-.19.46-.36.46-.12,0-.15-.33-.25-.41-.32-.25-.59-.24-.75-.36-.15-.12-.3-.16-.6-.4-.26.21-.52.29-.8.46.21.17.28.34.4.45.15.13.43.1.73.35.24.2.27.74.07.98-.11.13-.36.09-.52.09-.13,0-.11-.18-.21-.26-.32-.26-.5-.36-.65-.5-.15-.13-.52,0-.82-.25-.07-.06-.02-.12-.05-.2-.21.07-.46-.21-.69-.16s-.38.45-.61.47-.46-.2-.69-.2c-.22,0-.46.2-.69.18-.22-.02-.44-.12-.67-.16-.22-.04-.41-.21-.64-.27-.21-.05-.45-.04-.68-.11-.21-.07-.36-.32-.58-.41-.25-.09-.58-.09-.84-.05s-.56.15-.77.3-.2.48-.31.73c-.11.32-.25.28-.35.6s-.02.35-.12.68-.25.28-.35.61.24.43.14.76-.51.2-.62.53-.07.34-.17.67.17.41.07.74-.12.32-.21.65c-.11.35-.01.38-.12.74-.06.21-.15.35-.12.56s.13.34.24.53.08.46.26.58c.16.11.35.29.61.42.2.1.46.11.71.21.21.09.4.28.64.36.22.08.48.07.72.14.23.07.49.02.73.08s.49,0,.73.06.38.53.62.57.49.08.73.12.5-.04.75-.02.51-.25.75-.24.48.06.72.06.49.11.73.1c0,0-.06.05-.06.06.08.37-.02.39.07.76s.4.3.48.68.01.39.08.77c0,.22-.17.5-.1.69.07.21.16.49.3.64s.56-.05.76.04c.19.08.31.45.54.45.36,0,.36-.23.72-.23s.36.14.72.15.36-.08.72-.08.36.28.72.28.36-.07.72-.07.37-.37.73-.36.36.17.72.18.36.08.72.08.36.15.72.16.36.08.72.09.36-.13.72-.12.36-.04.72-.03.36-.29.73-.29.36.01.72.02.36.28.72.28.36-.23.72-.23.36.04.72.05.36.16.72.16.36-.07.72-.07.36-.13.72-.12.36.24.72.25.37-.26.73-.25.36.28.72.28.36.18.72.19.37-.38.73-.37.36,0,.72,0,.36.08.72.08.36.13.72.14.36.16.72.16.36-.22.73-.22.36.01.72.02.36.17.72.18.36.02.73.02.36,0,.73,0,.36-.06.73-.06.36.08.72.09.36-.08.73-.08.37-.24.73-.24.36.38.72.38.36-.11.73-.1.36.18.73.19.37-.42.73-.41.36,0,.73,0,.36.12.72.13.36.28.72.29.36-.26.73-.25.36-.1.73-.09.36-.04.73-.03.36.2.73.2.36.06.73.07.36.19.72.2.37-.36.73-.35.36,0,.73.01.36.28.72.28.37-.34.73-.33.36.42.72.43.37-.41.74-.41.36,0,.73,0,.36.22.72.23.37-.16.73-.16.37-.03.73-.02.36.33.73.34.37-.13.74-.12c.26.02.46-.13.68-.23s.5-.13.66-.33.23-.44.28-.69c.07-.34.08-.34.15-.68s.23-.31.29-.65.04-.35.1-.69-.21-.4-.15-.74.1-.34.16-.68.28-.3.35-.65c.05-.24.05-.52.03-.75s-.27-.43-.37-.65-.16-.45-.32-.63-.45-.16-.65-.29-.26-.56-.5-.61Z"/>
  </g>
  <path class="st8" d="M15.49,45.28c.1.08.22.12.35.12.17,0,.33-.07.44-.22.19-.24.15-.6-.1-.79-.32-.25-.48-.38-.64-.5-.13-.1-.26-.2-.47-.37-.27.28-.55.54-.84.77.31.24.46.36.62.48.16.13.32.25.64.5Z"/>
  <path class="st8" d="M13.12,46.08c.15.14.31.28.62.54.1.09.23.13.36.13.16,0,.32-.07.43-.2.2-.24.17-.59-.07-.79-.3-.25-.44-.38-.59-.51-.12-.11-.25-.22-.45-.4-.33.2-.68.37-1.05.5.03.08.09.16.16.22.3.25.44.38.59.51Z"/>
  <path class="st2" d="M16.98,51.54c-.35.04-.35.06-.71.1s-.36.04-.71.08-.36.03-.71.08-.36.02-.72.06-.36.06-.71.1c-.23.03-.43.1-.62.21s-.36.25-.5.43-.25.37-.31.58-.09.43-.06.66c.05.39.07.39.12.78s.01.4.06.79"/>
  <path class="st1" d="M35.81,37.25c.14-.2.28-.37.44-.55s.31-.35.48-.52.3-.38.48-.52.39-.27.59-.39.38-.3.59-.4.46-.13.69-.21.43-.21.66-.26.48-.03.71-.06.47-.05.71-.05.47.06.7.09.47.04.69.09.47.06.69.14.44.18.65.28.42.22.62.35.39.26.58.4.36.31.53.47.36.31.51.49.32.35.45.55.24.4.36.61.19.43.29.64.17.43.25.66.13.45.19.68.12.45.16.68.08.46.1.7.09.47.09.7-.02.48-.04.71-.05.47-.09.7-.13.46-.19.68-.2.43-.27.65-.1.47-.2.68-.26.39-.38.6-.2.43-.34.62-.33.34-.48.52-.23.43-.4.59-.36.31-.54.46-.37.3-.57.42-.43.2-.64.3-.45.15-.67.22-.44.15-.67.21-.45.12-.69.14-.47.1-.7.1-.48-.1-.71-.12-.47-.09-.7-.15-.48-.05-.7-.14-.41-.26-.62-.36-.48-.12-.68-.25-.35-.33-.54-.47-.41-.26-.58-.42-.29-.38-.45-.56-.28-.39-.41-.58"/>
  <g>
    <path class="st4" d="M26.3,41.09c-.26.22-.25.22-.51.44s-.27.19-.53.41-.26.22-.51.43-.25.23-.51.45-.25.22-.51.44-.26.22-.52.43"/>
    <path class="st4" d="M26.04,43.94q-.22-.26-.43-.51c-.22-.26-.2-.27-.41-.53s-.24-.24-.45-.5-.2-.27-.42-.53-.22-.26-.44-.52-.22-.26-.44-.52"/>
  </g>
  <path class="st5" d="M44.56,30.66c-.12-.34-.15-.33-.27-.67s-.09-.35-.21-.69.03-.4-.09-.74-.11-.35-.23-.69-.13-.34-.25-.68-.25-.29-.37-.64-.08-.35-.2-.7-.24-.3-.36-.64.02-.39-.1-.73-.24-.3-.36-.64,0-.38-.12-.73-.15-.33-.27-.67-.03-.37-.15-.71-.17-.32-.29-.66-.23-.3-.35-.64-.1-.35-.22-.69-.11-.35-.23-.69-.12-.34-.24-.69-.1-.35-.22-.69-.19-.32-.31-.66-.16-.33-.28-.67-.08-.36-.2-.7-.05-.37-.17-.71-.1-.35-.22-.69-.09-.35-.21-.7-.14-.34-.27-.68-.14-.34-.26-.68-.23-.3-.35-.65-.11-.35-.23-.69-.12-.34-.25-.69-.04-.37-.17-.72.12-.53-.14-.79c-.16-.16-.37-.06-.54.1-.26.25-.23.3-.35.64s-.03.37-.16.71-.23.3-.35.65.1.42-.02.76-.14.33-.26.68-.08.36-.2.7-.2.31-.32.65-.21.31-.33.65-.1.35-.22.69-.08.36-.2.7-.01.38-.13.72-.27.29-.39.63-.17.32-.29.66,0,.39-.11.72-.28.28-.4.62.1.42-.02.76-.25.3-.37.64,0,.39-.12.73-.23.3-.35.65-.17.32-.29.67-.13.34-.25.68-.11.35-.23.69.03.39-.1.74-.32.27-.44.62-.03.37-.16.72-.16.33-.28.67-.09.35-.21.7-.05.37-.17.71-.07.36-.2.71-.21.31-.33.66-.23.31-.35.65-.03.38-.16.72"/>
  <g>
    <path class="st0" d="M41.06,19.67c-.31.2-.36,0-.73,0s-.37.03-.74.03-.37,0-.73,0-.37-.02-.73-.02-.37-.01-.74-.01-.37.06-.74.06-.37-.06-.74-.06-.37.04-.73.04-.37-.02-.74-.02-.37,0-.74,0-.37-.03-.74-.03-.43.22-.74.02-.14-.34-.29-.68-.2-.31-.36-.65-.1-.36-.25-.7-.2-.32-.35-.66-.11-.36-.26-.7-.18-.33-.34-.67-.51-.37-.31-.68.37-.01.73-.01.36.02.73.02.36-.02.73-.02.37,0,.73,0,.36-.01.73-.01.36,0,.73,0,.36.05.73.05.37-.07.73-.07.37.02.73.02.37,0,.73,0,.37.03.73.03.37,0,.73,0,.37.01.73.01.36.03.73.03.37,0,.73,0,.37-.05.73-.05.37.03.74.03.54-.32.74-.01-.13.35-.28.68-.16.33-.32.67-.2.32-.35.65-.1.36-.26.7-.2.32-.36.66-.16.34-.25.7-.03.46-.34.67Z"/>
    <path class="st5" d="M41.06,19.67c-.31.2-.36,0-.73,0s-.37.03-.74.03-.37,0-.73,0-.37-.02-.73-.02-.37-.01-.74-.01-.37.06-.74.06-.37-.06-.74-.06-.37.04-.73.04-.37-.02-.74-.02-.37,0-.74,0-.37-.03-.74-.03-.43.22-.74.02-.14-.34-.29-.68-.2-.31-.36-.65-.1-.36-.25-.7-.2-.32-.35-.66-.11-.36-.26-.7-.18-.33-.34-.67-.51-.37-.31-.68.37-.01.73-.01.36.02.73.02.36-.02.73-.02.37,0,.73,0,.36-.01.73-.01.36,0,.73,0,.36.05.73.05.37-.07.73-.07.37.02.73.02.37,0,.73,0,.37.03.73.03.37,0,.73,0,.37.01.73.01.36.03.73.03.37,0,.73,0,.37-.05.73-.05.37.03.74.03.54-.32.74-.01-.13.35-.28.68-.16.33-.32.67-.2.32-.35.65-.1.36-.26.7-.2.32-.36.66-.16.34-.25.7-.03.46-.34.67Z"/>
  </g>
  <g>
    <path class="st9" d="M40.81,20.38c-.27.24-.26.25-.53.48s-.28.23-.55.46-.25.26-.52.5-.26.25-.53.49-.26.24-.53.48-.28.23-.54.47-.3.21-.57.45-.27.24-.55.48-.27.24-.54.48-.24.27-.51.51-.28.23-.55.47-.25.27-.52.51-.3.21-.57.45-.25.27-.52.51-.29.21-.56.45-.27.24-.54.48-.29.22-.56.46-.26.25-.53.49-.25.26-.53.51-.28.24-.55.48-.28.24-.55.48-.27.24-.55.48"/>
    <path class="st5" d="M40.81,20.38c-.27.24-.26.25-.53.48s-.28.23-.55.46-.25.26-.52.5-.26.25-.53.49-.26.24-.53.48-.28.23-.54.47-.3.21-.57.45-.27.24-.55.48-.27.24-.54.48-.24.27-.51.51-.28.23-.55.47-.25.27-.52.51-.3.21-.57.45-.25.27-.52.51-.29.21-.56.45-.27.24-.54.48-.29.22-.56.46-.26.25-.53.49-.25.26-.53.51-.28.24-.55.48-.28.24-.55.48-.27.24-.55.48"/>
  </g>
  <g>
    <path class="st9" d="M32.65,20.41c.27.24.27.23.54.47s.25.25.52.49.28.22.55.45.27.23.54.46.27.23.53.47.26.24.52.48.24.27.5.51.26.24.53.48.27.24.53.48.29.21.56.45.26.25.52.49.29.22.56.46.24.27.51.51.29.21.56.45.24.26.51.5.27.23.54.47.25.26.52.5.28.23.54.47.29.22.56.46.26.25.53.49.27.24.54.49.27.24.54.48"/>
    <path class="st5" d="M32.65,20.41c.27.24.27.23.54.47s.25.25.52.49.28.22.55.45.27.23.54.46.27.23.53.47.26.24.52.48.24.27.5.51.26.24.53.48.27.24.53.48.29.21.56.45.26.25.52.49.29.22.56.46.24.27.51.51.29.21.56.45.24.26.51.5.27.23.54.47.25.26.52.5.28.23.54.47.29.22.56.46.26.25.53.49.27.24.54.49.27.24.54.48"/>
  </g>
  <path class="st3" d="M43.93,7c.19.1.36.23.51.38s.3.32.38.51.09.41.09.62-.03.42-.12.61-.19.37-.35.53-.31.29-.5.39"/>
  <path class="st3" d="M47.16,5.94c.23.13.44.29.62.47s.39.36.52.59.23.48.3.73.08.51.08.78-.05.52-.12.77-.11.53-.24.75-.36.38-.55.57-.37.38-.6.5"/>
  <path class="st3" d="M29.2,6.99c-.19.1-.37.22-.52.37s-.25.34-.33.54-.17.39-.17.61.06.43.14.62.22.37.37.52.33.26.52.36"/>
  <path class="st3" d="M25.96,5.9c-.23.13-.44.3-.62.49s-.37.38-.51.61-.2.49-.27.74-.08.51-.08.78c0,.27.05.52.12.77s.16.49.29.72.25.47.44.65.4.35.63.48"/>
</svg>